<svg width="700" height="20" viewBox="0 0 700 20" fill="none" xmlns="http://www.w3.org/2000/svg">
  <path d="M 20,10 L 320,10" stroke="url(#fadeLeft)" stroke-width="0.75"/>
  <path d="M 380,10 L 680,10" stroke="url(#fadeRight)" stroke-width="0.75"/>
  <path d="M 320,10 C 325,6 335,4 340,10 C 335,16 325,14 320,10" stroke="#7a592c" stroke-width="1.0" fill="none"/>
  <path d="M 380,10 C 375,6 365,4 360,10 C 365,16 375,14 380,10" stroke="#7a592c" stroke-width="1.0" fill="none"/>
  <path d="M 340,10 C 343,4 357,4 360,10 C 357,16 343,16 340,10" stroke="#7a592c" stroke-width="1.25" fill="none"/>
  <circle cx="350" cy="10" r="1.75" fill="#7a592c"/>
  <path d="M 345,10 C 348,8 352,8 355,10" stroke="#7a592c" stroke-width="0.75"/>
  <defs>
    <linearGradient id="fadeLeft" x1="20" y1="10" x2="320" y2="10" gradientUnits="userSpaceOnUse">
      <stop stop-color="#7a592c" stop-opacity="0"/>
      <stop offset="0.8" stop-color="#7a592c" stop-opacity="0.6"/>
    </linearGradient>
    <linearGradient id="fadeRight" x1="680" y1="10" x2="380" y2="10" gradientUnits="userSpaceOnUse">
      <stop stop-color="#7a592c" stop-opacity="0"/>
      <stop offset="0.8" stop-color="#7a592c" stop-opacity="0.6"/>
    </linearGradient>
  </defs>
</svg>
